<?xml version="1.0" standalone="no"?>
<!DOCTYPE svg PUBLIC "-//W3C//DTD SVG 20010904//EN"
 "http://www.w3.org/TR/2001/REC-SVG-20010904/DTD/svg10.dtd">
<svg version="1.0" xmlns="http://www.w3.org/2000/svg"
 width="861.000000pt" height="865.000000pt" viewBox="0 0 861.000000 865.000000"
 preserveAspectRatio="xMidYMid meet">

<g transform="translate(0.000000,865.000000) scale(0.100000,-0.100000)"
fill="#000000" stroke="none">
<path d="M4210 7975 c-143 -41 -230 -144 -230 -275 0 -135 89 -237 240 -276
154 -39 323 30 393 161 17 31 22 57 22 115 0 58 -5 84 -22 115 -70 132 -249
203 -403 160z"/>
<path d="M1678 6959 l-1338 -669 0 -1965 0 -1965 1982 -991 1983 -991 1982
991 1983 991 0 1965 0 1965 -1343 671 -1343 672 -365 -198 c-200 -109 -384
-209 -408 -223 l-44 -26 1327 -663 1326 -663 0 -1560 0 -1560 -1558 -779
-1557 -779 -1558 779 -1557 779 0 1560 0 1560 1331 666 1331 665 -403 219
c-222 121 -411 220 -419 219 -8 0 -617 -301 -1352 -670z"/>
<path d="M3233 5923 l-1073 -535 0 -992 c0 -545 -3 -1027 -6 -1071 l-6 -80
1077 -525 c592 -289 1080 -524 1085 -523 16 4 2115 1036 2124 1044 5 4 -232
128 -525 275 l-534 266 -530 -265 -530 -265 -537 269 -538 269 0 464 c0 254 3
491 7 525 l6 62 528 265 529 264 524 -266 525 -265 541 253 c299 139 543 257
544 262 1 8 -691 366 -1779 920 l-360 183 -1072 -534z m2132 -18 c578 -296
1055 -540 1062 -544 7 -3 -230 -120 -526 -258 l-539 -252 -526 265 -525 265
-540 -271 -541 -270 0 -529 0 -530 545 -270 544 -269 528 265 527 266 525
-263 526 -262 -100 -51 c-55 -27 -500 -247 -990 -487 -489 -240 -921 -453
-960 -472 l-70 -35 -1065 521 -1065 522 -3 1067 -2 1067 1067 534 c588 294
1070 533 1073 531 3 -1 478 -244 1055 -540z"/>
</g>
</svg>
